<svg id="svg" version="1.1" width="400" height="70" xmlns="http://www.w3.org/2000/svg" xmlns:xlink="http://www.w3.org/1999/xlink" style="display: block;"><g id="svgg"><path id="path0" d="M34.959 5.600 C 34.959 8.790,35.021 10.095,35.097 8.500 C 35.173 6.905,35.173 4.295,35.097 2.700 C 35.021 1.105,34.959 2.410,34.959 5.600 M222.900 6.694 C 223.945 6.776,225.655 6.776,226.700 6.694 C 227.745 6.612,226.890 6.544,224.800 6.544 C 222.710 6.544,221.855 6.612,222.900 6.694 M368.060 12.500 C 368.027 14.425,368.135 16.000,368.300 16.001 C 368.465 16.001,368.550 14.876,368.488 13.501 C 368.298 9.250,368.123 8.840,368.060 12.500 M55.389 41.600 C 55.389 56.450,55.439 62.525,55.500 55.100 C 55.561 47.675,55.561 35.525,55.500 28.100 C 55.439 20.675,55.389 26.750,55.389 41.600 M34.989 42.000 C 34.989 56.630,35.039 62.615,35.100 55.300 C 35.161 47.985,35.161 36.015,35.100 28.700 C 35.039 21.385,34.989 27.370,34.989 42.000 M274.305 25.483 C 274.802 25.579,275.522 25.575,275.905 25.475 C 276.287 25.375,275.880 25.296,275.000 25.301 C 274.120 25.305,273.807 25.387,274.305 25.483 " stroke="none" fill="#909195" fill-rule="evenodd"></path><path id="path1" d="M13.381 53.400 C 13.381 61.760,13.434 65.237,13.499 61.126 C 13.564 57.016,13.564 50.176,13.500 45.926 C 13.435 41.677,13.382 45.040,13.381 53.400 " stroke="none" fill="#ffffff" fill-rule="evenodd"></path><path id="path2" d="M11.055 0.440 C 8.150 0.864,4.509 2.489,3.254 3.921 C -0.077 7.724,0.010 6.759,0.005 39.700 L 0.000 68.400 6.600 68.400 L 13.200 68.400 13.199 53.500 L 13.199 38.600 15.699 38.741 C 22.325 39.114,25.686 36.718,26.262 31.210 L 26.514 28.800 19.833 28.800 L 13.152 28.800 13.276 21.161 L 13.400 13.523 14.600 12.563 C 15.748 11.645,16.064 11.604,21.900 11.602 L 28.000 11.600 28.000 5.800 L 28.000 0.000 20.700 0.049 C 16.685 0.076,12.345 0.252,11.055 0.440 M35.200 5.565 L 35.200 11.200 41.639 11.200 L 48.077 11.200 47.939 7.428 C 47.717 1.409,46.432 0.288,39.500 0.066 L 35.200 -0.071 35.200 5.565 M354.800 35.756 L 354.800 68.400 361.589 68.400 L 368.377 68.400 368.489 49.668 L 368.600 30.937 369.754 29.425 C 373.170 24.947,382.909 25.384,385.506 30.132 C 386.122 31.258,386.222 33.219,386.400 47.600 C 386.658 68.536,386.451 68.092,396.100 68.358 L 400.000 68.465 400.000 52.061 C 400.000 29.398,399.454 26.265,394.510 20.585 C 390.112 15.532,377.486 13.213,368.700 15.844 C 368.067 16.034,368.000 15.684,368.000 12.214 C 368.000 5.217,366.305 3.505,359.135 3.260 L 354.800 3.112 354.800 35.756 M224.900 6.715 L 221.200 6.830 221.200 18.015 L 221.200 29.200 218.352 29.200 L 215.504 29.200 215.677 31.500 C 215.954 35.172,218.243 38.400,220.572 38.400 C 221.066 38.400,221.177 40.160,221.302 49.900 C 221.450 61.554,221.519 62.389,222.468 64.027 C 224.363 67.299,226.799 68.000,236.273 68.000 L 243.600 68.000 243.600 64.380 C 243.600 59.242,242.290 57.200,238.994 57.200 C 235.044 57.200,234.800 56.596,234.800 46.824 L 234.800 38.913 238.205 38.700 C 243.367 38.378,245.490 36.397,245.901 31.518 L 246.096 29.200 240.448 29.200 L 234.800 29.200 234.800 20.259 C 234.800 7.778,233.821 6.438,224.900 6.715 M267.800 14.789 C 255.943 17.944,250.277 27.371,250.912 42.886 C 251.140 48.451,251.180 48.739,252.222 52.355 C 256.001 65.461,269.091 71.602,283.800 67.168 C 289.995 65.300,295.463 60.011,297.590 53.829 L 298.357 51.600 292.186 51.600 L 286.016 51.600 283.452 53.923 C 275.749 60.904,264.800 56.393,264.800 46.238 L 264.800 44.800 282.062 44.800 L 299.323 44.800 299.057 39.700 C 298.064 20.639,284.986 10.216,267.800 14.789 M320.800 14.576 C 308.916 17.344,302.984 26.315,303.065 41.400 C 303.159 59.108,311.481 68.509,327.000 68.441 C 337.884 68.393,344.499 64.415,348.685 55.400 C 350.556 51.371,350.804 51.600,344.587 51.600 C 338.513 51.600,337.408 51.892,334.903 54.154 C 330.618 58.026,323.921 58.261,320.057 54.675 C 315.534 50.479,315.045 35.039,319.242 28.940 C 322.305 24.487,329.863 24.067,334.324 28.102 C 337.032 30.551,338.287 30.923,344.500 31.118 C 350.773 31.315,350.516 31.503,349.003 27.820 C 344.703 17.361,332.816 11.778,320.800 14.576 M55.600 41.600 L 55.600 68.400 62.200 68.400 L 68.800 68.400 68.800 50.977 C 68.800 31.687,68.897 30.728,71.062 28.686 C 74.450 25.491,82.082 25.584,85.086 28.857 C 87.076 31.024,87.200 32.178,87.200 48.470 C 87.200 64.715,87.209 64.796,89.262 66.645 C 90.646 67.891,92.161 68.250,96.500 68.363 L 100.400 68.465 100.400 50.868 C 100.400 28.913,100.021 26.444,95.886 21.475 C 90.091 14.512,75.104 12.487,65.546 17.375 L 62.891 18.732 61.583 17.382 C 60.407 16.170,57.515 14.800,56.129 14.800 C 55.696 14.800,55.600 19.650,55.600 41.600 M107.600 41.600 L 107.600 68.400 114.389 68.400 L 121.177 68.400 121.289 49.668 L 121.400 30.937 122.554 29.425 C 125.931 24.998,135.738 25.438,138.306 30.132 C 138.922 31.258,139.022 33.219,139.200 47.600 C 139.456 68.303,139.299 67.953,148.488 68.324 L 152.800 68.499 152.800 52.078 C 152.800 29.211,152.124 25.418,147.160 20.454 C 141.041 14.335,127.000 12.856,117.826 17.364 L 115.053 18.727 113.963 17.560 C 112.753 16.265,109.888 14.822,108.500 14.809 L 107.600 14.800 107.600 41.600 M35.200 42.000 L 35.200 68.400 41.815 68.400 L 48.429 68.400 48.315 43.829 C 48.175 13.831,48.728 15.602,39.500 15.601 L 35.200 15.600 35.200 42.000 M279.408 26.178 C 282.361 27.412,284.800 31.344,284.800 34.873 L 284.800 36.000 274.744 36.000 L 264.689 36.000 264.923 34.022 C 265.730 27.210,272.764 23.401,279.408 26.178 " stroke="none" fill="#909195" fill-rule="evenodd"></path><path id="path3" d="M176.800 11.852 C 170.809 13.006,164.510 17.097,161.253 21.947 C 157.864 26.993,157.232 29.961,157.214 40.908 L 157.200 49.615 158.300 49.353 C 158.905 49.209,160.231 48.782,161.246 48.404 L 163.093 47.718 163.590 50.500 C 168.008 75.221,206.032 75.949,211.816 51.424 C 212.746 47.485,212.649 30.613,211.700 30.998 C 210.051 31.667,206.661 32.794,206.578 32.701 C 206.528 32.645,206.192 31.430,205.831 30.000 C 202.638 17.336,189.843 9.338,176.800 11.852 M186.059 20.544 C 192.032 21.950,196.505 26.756,197.699 33.052 C 197.965 34.453,198.279 35.600,198.397 35.600 C 198.515 35.600,199.596 35.240,200.800 34.800 C 204.344 33.505,204.119 33.005,203.905 41.700 C 203.755 47.818,203.573 49.729,203.022 51.000 C 196.390 66.293,173.521 63.608,171.778 47.332 C 171.546 45.164,171.398 44.795,170.851 45.019 C 170.493 45.166,169.570 45.467,168.800 45.688 C 168.030 45.908,166.950 46.320,166.400 46.604 L 165.400 47.119 165.630 39.259 C 166.063 24.513,173.597 17.611,186.059 20.544 M179.748 31.158 C 175.619 32.218,173.200 35.884,173.200 41.079 C 173.200 42.905,173.267 44.400,173.350 44.400 C 173.432 44.400,174.241 44.138,175.147 43.819 L 176.794 43.238 177.026 44.319 C 178.621 51.752,187.187 54.513,192.380 49.267 C 194.319 47.309,194.807 45.758,194.914 41.222 L 195.000 37.539 194.000 37.760 C 193.450 37.881,192.613 38.091,192.140 38.227 C 191.426 38.431,191.234 38.266,191.013 37.259 C 190.069 32.959,184.492 29.939,179.748 31.158 " stroke="none" fill="#2A306D" fill-rule="evenodd"></path><path id="path4" d="M194.931 41.000 C 194.933 42.540,195.005 43.121,195.092 42.291 C 195.179 41.461,195.177 40.201,195.089 39.491 C 195.000 38.781,194.929 39.460,194.931 41.000 " stroke="none" fill="#909195" fill-rule="evenodd"></path></g></svg>
